<svg xmlns="http://www.w3.org/2000/svg" viewBox="0 0 24 24" width="24" height="24">
  <!-- Paused: white mic with dark outline + red diagonal slash, visible on both themes -->
  <g fill="#ffffff" stroke="#202124" stroke-width="1.4" stroke-linejoin="round">
    <path d="M12 2.7a2.7 2.7 0 0 0-2.7 2.7v5.6a2.7 2.7 0 0 0 5.4 0V5.4A2.7 2.7 0 0 0 12 2.7z"/>
    <path d="M5.5 11a1 1 0 0 1 2 0 4.5 4.5 0 0 0 9 0 1 1 0 0 1 2 0 6.5 6.5 0 0 1-5.5 6.42V19.5h2a1 1 0 0 1 0 2H9a1 1 0 0 1 0-2h2v-2.08A6.5 6.5 0 0 1 5.5 11z"/>
  </g>
  <line x1="3" y1="3" x2="21" y2="21" stroke="#e53935" stroke-width="3" stroke-linecap="round"/>
</svg>
