<svg xmlns="http://www.w3.org/2000/svg" viewBox="0 0 24 24" width="24" height="24">
  <!-- Thinking: white mic (dark outline) + amber dots underneath -->
  <g fill="#ffffff" stroke="#202124" stroke-width="1.4" stroke-linejoin="round">
    <path d="M12 2.7a2.7 2.7 0 0 0-2.7 2.7v4.6a2.7 2.7 0 0 0 5.4 0V5.4A2.7 2.7 0 0 0 12 2.7z"/>
    <path d="M5.5 10a1 1 0 0 1 2 0 4.5 4.5 0 0 0 9 0 1 1 0 0 1 2 0 6.5 6.5 0 0 1-5.5 6.42V18h-2v-1.58A6.5 6.5 0 0 1 5.5 10z"/>
  </g>
  <circle cx="6"  cy="21" r="1.6" fill="#fbc02d" stroke="#7c5400" stroke-width="0.6"/>
  <circle cx="12" cy="21" r="1.6" fill="#fbc02d" stroke="#7c5400" stroke-width="0.6"/>
  <circle cx="18" cy="21" r="1.6" fill="#fbc02d" stroke="#7c5400" stroke-width="0.6"/>
</svg>
